<?xml version="1.0" encoding="UTF-8"?>
<svg id="Ebene_1" xmlns="http://www.w3.org/2000/svg" version="1.1" viewBox="0 0 16 16">
  <!-- Generator: Adobe Illustrator 29.3.1, SVG Export Plug-In . SVG Version: 2.1.0 Build 151)  -->
  <defs>
    <style>
      .st0 {
        fill-rule: evenodd;
      }

      .st0, .st1 {
        fill: #00b977;
      }

      .st2 {
        fill: #fff;
      }

      .st3 {
        fill: #fe99ff;
      }
    </style>
  </defs>
  <g id="Ebene_11" data-name="Ebene_1">
    <path class="st2" d="M1,1h14v14H1V1Z"/>
    <path class="st1" d="M1,1v14h14V1H1ZM2,2h12v12H2V2Z"/>
    <path class="st1" d="M3,3h10v1H3v-1Z"/>
    <path class="st3" d="M3,4.9h10v8.1H3V4.9Z"/>
  </g>
  <path class="st0" d="M6.1,8.6c0,0-.2-.2-.2-.4-.1-.3-.2-.6-.2-.9,0-1.8,2.1-2.1,3.4-1.6.3.1.6.3.8.5.5.6.6,1.7,0,2.3,0,0,0-.2,0-.3h0c0-.2,0-.3,0-.4,0,0,0-.1,0-.2,0-.1,0-.2,0-.4,0-.1,0-.2,0-.3,0,0,0,0-.1,0,0,0,0,0,0,.1,0,0,0,.2,0,.3,0,0,0,.2,0,.3,0,0,0,.1,0,.2,0,.1,0,.2,0,.5h0c0,.1,0,.2,0,.4,0,0,0,0,0,0,0,.1,0,.3,0,.5,0,.2,0,.3-.2.4,0,0-.1,0-.2,0h0c-.1,0-.3,0-.4.2,0,0-.1.1-.2.2,0,0,0,.2,0,.3-.2,0-.5,0-.7,0-.2,0-.5,0-.7,0,0,0,0-.1,0-.2,0,0-.1-.2-.2-.2-.2-.1-.3-.2-.4-.2h0c0,0-.2,0-.2,0,0,0-.1-.2-.2-.4,0-.2,0-.4,0-.5,0,0,0,0,0,0,0,0,0-.1,0-.2,0,0,0-.1,0-.2h0c0-.2,0-.3,0-.5,0,0,0-.1,0-.2,0-.1,0-.2,0-.3,0,0,0-.2,0-.3,0,0,0,0,0-.1,0,0,0,0-.1,0,0,.1,0,.2,0,.3,0,.1,0,.2,0,.4,0,0,0,.1,0,.2,0,.1,0,.2,0,.4h0c0,0,0,.1,0,.2,0,0,0,.1,0,.2,0,0,0,0,0,0h0ZM6.6,10.5l-.9-.5c-.5-.2-.5-.2-.8-.2-.3,0-.7-.1,0-.6,0-.3,0-.5.2-.5,0,0,.2,0,.2.2,0,.1.1.2.2.3.1.1.7.4,1,.5.1.3.2.5.1.7h0ZM9.4,10.5l.9-.5c.5-.2.5-.2.8-.2.3,0,.7-.1,0-.6,0-.3,0-.5-.2-.5,0,0-.2,0-.2.2,0,.1-.1.2-.2.3-.1.1-.7.4-1,.5-.2.3-.2.5-.2.8ZM9.2,11.4l.4.2c.5.2.5.2.6.5.1.3.6.5.5-.3.3-.1.4-.4.3-.5,0,0-.1-.1-.3-.1-.1,0-.3,0-.4,0-.2,0-.7-.3-1.1-.4,0,.2,0,.3-.2.5h0s0,0,0,0ZM6.7,11.4l-.4.2c-.5.2-.5.2-.6.5-.1.3-.6.5-.5-.3-.3-.1-.4-.4-.3-.5,0,0,.1-.1.3-.1.1,0,.3,0,.4,0,.2,0,.7-.3,1-.4,0,.1,0,.2,0,.3,0,0,0,.1,0,.2h0ZM8.8,10.3s0,0,0,0v.2s0,0-.1,0v-.3s0,0,0,0h0ZM8.9,10.3s0,0,0,0c0,0,0-.1,0-.2,0,0,0-.1.1-.2,0,0,0,0,0,0,0,.1,0,.2,0,.3,0,.1,0,.3,0,.4h0c0,.1,0,.2,0,.2v-.5s0,0,0,0ZM9.3,9.8c0,0,.1,0,.2,0h0s0,0,0,0c-.4.7,0,1-.3,1.6-.4.7-2,.8-2.4-.2-.2-.5,0-.9-.2-1.4h0s0,0,0,0c0,0,0,0,.1,0,0,.1.1.3.1.4,0,.1,0,.3,0,.4h0c0,.2,0,.2.1.3.2.2.6.3.9.3.4,0,.7,0,.9-.2h0c.1-.1.1-.2.1-.3h0c0-.2,0-.3,0-.5,0-.1,0-.2.1-.4h0ZM6.8,9.9s0,0,.1,0c0,0,.1.1.1.2,0,0,0,0,0,.1,0,0,0,0,0,0,0,.2,0,.3,0,.5,0,0,0,0,0-.2h0c0-.2,0-.4,0-.5,0,0,0-.2-.1-.3h0ZM7.2,10.4s0,0,0,0c0,0,0,0,0,0v.3s0,0-.1,0v-.2ZM7.4,10.4v.3s0,0,.1,0v-.3s0,0-.1,0h0ZM7.6,10.4v.3s0,0,.1,0v-.3s0,0-.1,0ZM7.8,10.4v.3s0,0,.1,0v-.3s0,0-.1,0ZM8,10.4v.3s0,0,.1,0v-.3s0,0-.1,0h0ZM8.2,10.4v.3s0,0,.1,0v-.3s0,0-.1,0h0ZM8.4,10.4v.3s0,0,.1,0v-.3s0,0-.1,0h0ZM7.2,10.7v.2s0,0,.1,0v-.3s0,0-.1,0ZM7.4,10.8v.3s0,0,.1,0v-.3s0,0-.1,0h0ZM7.6,10.8v.3s0,0,.1,0v-.3s0,0-.1,0ZM7.8,10.8v.3s0,0,.1,0v-.3s0,0-.1,0h0ZM8,10.8v.3s0,0,.1,0v-.3s0,0-.1,0h0ZM8.3,10.8v.3s0,0,.1,0v-.3s0,0-.1,0ZM8.5,10.8v.3s0,0,.1,0v-.3s0,0-.1,0h0ZM8.7,10.7v.3c0,0,0,0,.1,0v-.2s0,0-.1,0h0ZM8,9.8v-.8c-.3.1-.5.6-.3,1,0,.2.3,0,.3-.1ZM7.4,8.9c-.1.1-.2.3-.4.3-.2,0-.4-.2-.5-.5,0-.1,0-.3,0-.4.1-.2.3-.2.5-.2.3,0,.6-.1.6.2,0,0,0,.1,0,.2,0,.1-.2.3-.3.4h0ZM8.6,8.9c.1.1.2.3.4.3.2,0,.4-.2.5-.5,0-.1,0-.3,0-.4-.1-.2-.3-.2-.5-.2-.3,0-.6-.1-.6.2,0,0,0,.1,0,.2,0,.1.2.3.3.4h0ZM8,9.8v-.8c.3.1.5.6.3,1,0,.2-.3,0-.3-.1Z"/>
</svg>